<svg width="1280" height="520" viewBox="0 0 1280 520" fill="none" xmlns="http://www.w3.org/2000/svg" role="img" aria-labelledby="title desc">
  <title id="title">KChart hybrid chart engine preview</title>
  <desc id="desc">A dark metallic dashboard preview showing SVG, Canvas, WebGL, globe, and wafer monitoring chart layers.</desc>
  <defs>
    <linearGradient id="bg" x1="0" y1="0" x2="1280" y2="520" gradientUnits="userSpaceOnUse">
      <stop stop-color="#070B12"/>
      <stop offset="0.52" stop-color="#111C2A"/>
      <stop offset="1" stop-color="#07111F"/>
    </linearGradient>
    <linearGradient id="panel" x1="128" y1="60" x2="1152" y2="460" gradientUnits="userSpaceOnUse">
      <stop stop-color="#1D2938" stop-opacity="0.98"/>
      <stop offset="1" stop-color="#0C1420" stop-opacity="0.96"/>
    </linearGradient>
    <linearGradient id="line" x1="176" y1="328" x2="760" y2="180" gradientUnits="userSpaceOnUse">
      <stop stop-color="#5EDBFF"/>
      <stop offset="0.5" stop-color="#8B7CFF"/>
      <stop offset="1" stop-color="#35F2A0"/>
    </linearGradient>
    <linearGradient id="bar" x1="0" y1="0" x2="0" y2="148" gradientUnits="userSpaceOnUse">
      <stop stop-color="#7DD3FC"/>
      <stop offset="1" stop-color="#2563EB"/>
    </linearGradient>
    <linearGradient id="wafer" x1="850" y1="140" x2="1080" y2="370" gradientUnits="userSpaceOnUse">
      <stop stop-color="#1E3A5F"/>
      <stop offset="0.45" stop-color="#0F766E"/>
      <stop offset="1" stop-color="#10233D"/>
    </linearGradient>
    <filter id="softGlow" x="-40%" y="-40%" width="180%" height="180%">
      <feGaussianBlur stdDeviation="8" result="blur"/>
      <feColorMatrix in="blur" type="matrix" values="0 0 0 0 0.28 0 0 0 0 0.78 0 0 0 0 1 0 0 0 0.85 0"/>
      <feMerge>
        <feMergeNode/>
        <feMergeNode in="SourceGraphic"/>
      </feMerge>
    </filter>
    <pattern id="grid" width="32" height="32" patternUnits="userSpaceOnUse">
      <path d="M32 0H0V32" stroke="#93A4B8" stroke-opacity="0.08"/>
    </pattern>
  </defs>

  <rect width="1280" height="520" rx="34" fill="url(#bg)"/>
  <rect width="1280" height="520" rx="34" fill="url(#grid)"/>
  <rect x="74" y="44" width="1132" height="432" rx="28" fill="url(#panel)" stroke="#90A4B8" stroke-opacity="0.2"/>
  <rect x="74" y="44" width="1132" height="72" rx="28" fill="#182233" fill-opacity="0.9"/>
  <path d="M74 116H1206" stroke="#B8C7D9" stroke-opacity="0.12"/>

  <text x="116" y="92" fill="#F8FAFC" font-family="Inter, ui-sans-serif, system-ui, -apple-system, BlinkMacSystemFont, Segoe UI, sans-serif" font-size="36" font-weight="800">KChart</text>
  <text x="258" y="91" fill="#9FB0C7" font-family="Inter, ui-sans-serif, system-ui, -apple-system, BlinkMacSystemFont, Segoe UI, sans-serif" font-size="17" font-weight="600">Class-free hybrid chart runtime for SVG, Canvas, WebGL and custom 3D renderers</text>

  <g transform="translate(118 144)">
    <rect width="670" height="274" rx="22" fill="#0B1320" stroke="#4B5B72" stroke-opacity="0.55"/>
    <path d="M48 226H622" stroke="#C8D4E3" stroke-opacity="0.28"/>
    <path d="M48 32V226" stroke="#C8D4E3" stroke-opacity="0.28"/>
    <path d="M48 190H622M48 154H622M48 118H622M48 82H622M48 46H622" stroke="#9FB0C7" stroke-opacity="0.08" stroke-dasharray="4 12"/>
    <path d="M58 206C106 164 126 180 170 128C218 72 260 82 314 122C376 168 420 122 468 82C522 38 564 70 612 42" stroke="url(#line)" stroke-width="5" stroke-linecap="round" stroke-linejoin="round" filter="url(#softGlow)"/>
    <path d="M58 218C112 208 154 198 210 176C278 150 314 168 364 198C430 238 496 194 546 166C580 146 602 148 622 140" stroke="#F97316" stroke-opacity="0.78" stroke-width="3" stroke-linecap="round"/>
    <g opacity="0.9">
      <rect x="94" y="162" width="42" height="64" rx="8" fill="url(#bar)"/>
      <rect x="160" y="120" width="42" height="106" rx="8" fill="url(#bar)"/>
      <rect x="226" y="144" width="42" height="82" rx="8" fill="url(#bar)"/>
      <rect x="292" y="92" width="42" height="134" rx="8" fill="url(#bar)"/>
      <rect x="358" y="132" width="42" height="94" rx="8" fill="url(#bar)"/>
    </g>
    <circle cx="468" cy="82" r="7" fill="#35F2A0" stroke="#E2F7FF" stroke-width="3"/>
    <circle cx="612" cy="42" r="7" fill="#7DD3FC" stroke="#E2F7FF" stroke-width="3"/>
    <rect x="466" y="94" width="112" height="64" rx="14" fill="#080D16" stroke="#7DD3FC" stroke-opacity="0.6"/>
    <text x="484" y="121" fill="#EAF6FF" font-family="Inter, ui-sans-serif, system-ui" font-size="14" font-weight="800">WebGL</text>
    <text x="484" y="144" fill="#9FB0C7" font-family="Inter, ui-sans-serif, system-ui" font-size="13">120k points</text>
  </g>

  <g transform="translate(832 146)">
    <circle cx="148" cy="136" r="122" fill="url(#wafer)" stroke="#9BE7FF" stroke-opacity="0.65" stroke-width="2"/>
    <circle cx="148" cy="136" r="122" stroke="#B5F7FF" stroke-opacity="0.24" stroke-width="12"/>
    <path d="M84 241C112 228 188 228 214 242" stroke="#09111C" stroke-width="10" stroke-linecap="round"/>
    <g opacity="0.95">
      <rect x="84" y="78" width="18" height="18" rx="4" fill="#22F59A"/>
      <rect x="108" y="78" width="18" height="18" rx="4" fill="#22F59A"/>
      <rect x="132" y="78" width="18" height="18" rx="4" fill="#FFD166"/>
      <rect x="156" y="78" width="18" height="18" rx="4" fill="#22F59A"/>
      <rect x="180" y="78" width="18" height="18" rx="4" fill="#22F59A"/>
      <rect x="72" y="104" width="18" height="18" rx="4" fill="#22F59A"/>
      <rect x="96" y="104" width="18" height="18" rx="4" fill="#22F59A"/>
      <rect x="120" y="104" width="18" height="18" rx="4" fill="#FF3D71"/>
      <rect x="144" y="104" width="18" height="18" rx="4" fill="#22F59A"/>
      <rect x="168" y="104" width="18" height="18" rx="4" fill="#22F59A"/>
      <rect x="192" y="104" width="18" height="18" rx="4" fill="#22F59A"/>
      <rect x="72" y="130" width="18" height="18" rx="4" fill="#22F59A"/>
      <rect x="96" y="130" width="18" height="18" rx="4" fill="#7DD3FC"/>
      <rect x="120" y="130" width="18" height="18" rx="4" fill="#22F59A"/>
      <rect x="144" y="130" width="18" height="18" rx="4" fill="#22F59A"/>
      <rect x="168" y="130" width="18" height="18" rx="4" fill="#FFD166"/>
      <rect x="192" y="130" width="18" height="18" rx="4" fill="#22F59A"/>
      <rect x="84" y="156" width="18" height="18" rx="4" fill="#22F59A"/>
      <rect x="108" y="156" width="18" height="18" rx="4" fill="#22F59A"/>
      <rect x="132" y="156" width="18" height="18" rx="4" fill="#22F59A"/>
      <rect x="156" y="156" width="18" height="18" rx="4" fill="#FF3D71"/>
      <rect x="180" y="156" width="18" height="18" rx="4" fill="#22F59A"/>
      <rect x="108" y="182" width="18" height="18" rx="4" fill="#22F59A"/>
      <rect x="132" y="182" width="18" height="18" rx="4" fill="#22F59A"/>
      <rect x="156" y="182" width="18" height="18" rx="4" fill="#22F59A"/>
    </g>
    <path d="M48 48C80 18 128 4 174 12C222 21 258 52 272 94" stroke="#A7F3D0" stroke-opacity="0.45" stroke-width="3" stroke-linecap="round"/>
  </g>

  <g transform="translate(832 390)">
    <rect width="294" height="44" rx="22" fill="#0B1320" stroke="#5EDBFF" stroke-opacity="0.28"/>
    <circle cx="28" cy="22" r="7" fill="#35F2A0"/>
    <text x="48" y="28" fill="#DDEBFA" font-family="Inter, ui-sans-serif, system-ui" font-size="15" font-weight="700">SVG · Canvas · WebGL · Three.js</text>
  </g>
</svg>
