<svg width="512" height="512" viewBox="0 0 512 512" fill="none" xmlns="http://www.w3.org/2000/svg" role="img" aria-labelledby="title desc">
  <title id="title">KChart icon</title>
  <desc id="desc">A metallic K monogram with a hybrid chart line.</desc>
  <defs>
    <linearGradient id="shell" x1="72" y1="44" x2="440" y2="468" gradientUnits="userSpaceOnUse">
      <stop stop-color="#223049"/>
      <stop offset="0.48" stop-color="#0B1320"/>
      <stop offset="1" stop-color="#182237"/>
    </linearGradient>
    <linearGradient id="stroke" x1="82" y1="70" x2="438" y2="438" gradientUnits="userSpaceOnUse">
      <stop stop-color="#E8F7FF" stop-opacity="0.9"/>
      <stop offset="0.34" stop-color="#5EDBFF"/>
      <stop offset="0.68" stop-color="#35F2A0"/>
      <stop offset="1" stop-color="#FBBF24"/>
    </linearGradient>
    <linearGradient id="kfill" x1="132" y1="112" x2="336" y2="398" gradientUnits="userSpaceOnUse">
      <stop stop-color="#F8FBFF"/>
      <stop offset="0.42" stop-color="#BEEBFF"/>
      <stop offset="1" stop-color="#7DD3FC"/>
    </linearGradient>
    <filter id="glow" x="-45%" y="-45%" width="190%" height="190%" color-interpolation-filters="sRGB">
      <feGaussianBlur stdDeviation="13" result="blur"/>
      <feColorMatrix in="blur" type="matrix" values="0 0 0 0 0.20 0 0 0 0 0.85 0 0 0 0 1.00 0 0 0 0.65 0"/>
      <feBlend in="SourceGraphic" mode="screen"/>
    </filter>
    <filter id="softShadow" x="-20%" y="-20%" width="140%" height="140%" color-interpolation-filters="sRGB">
      <feDropShadow dx="0" dy="24" stdDeviation="24" flood-color="#000000" flood-opacity="0.42"/>
    </filter>
  </defs>
  <rect x="42" y="42" width="428" height="428" rx="96" fill="url(#shell)" filter="url(#softShadow)"/>
  <rect x="54" y="54" width="404" height="404" rx="84" stroke="url(#stroke)" stroke-opacity="0.72" stroke-width="8"/>
  <path d="M112 120H160V231L272 120H337L215 238L350 392H285L185 273L160 298V392H112V120Z" fill="url(#kfill)"/>
  <path d="M142 382C196 310 229 334 272 270C316 204 354 236 400 154" stroke="url(#stroke)" stroke-width="22" stroke-linecap="round" stroke-linejoin="round" filter="url(#glow)"/>
  <path d="M142 382C196 310 229 334 272 270C316 204 354 236 400 154" stroke="#08111F" stroke-opacity="0.36" stroke-width="7" stroke-linecap="round" stroke-linejoin="round"/>
  <circle cx="142" cy="382" r="18" fill="#5EDBFF" stroke="#F8FBFF" stroke-width="8"/>
  <circle cx="272" cy="270" r="18" fill="#35F2A0" stroke="#F8FBFF" stroke-width="8"/>
  <circle cx="400" cy="154" r="18" fill="#FBBF24" stroke="#F8FBFF" stroke-width="8"/>
  <path d="M94 96H418" stroke="#FFFFFF" stroke-opacity="0.16" stroke-width="6" stroke-linecap="round"/>
  <path d="M96 418H418" stroke="#5EDBFF" stroke-opacity="0.18" stroke-width="5" stroke-linecap="round"/>
</svg>
